<?xml version="1.0" standalone="no"?>
<!DOCTYPE svg PUBLIC "-//W3C//DTD SVG 20010904//EN"
 "http://www.w3.org/TR/2001/REC-SVG-20010904/DTD/svg10.dtd">
<svg version="1.0" xmlns="http://www.w3.org/2000/svg"
 width="2560.000000pt" height="1707.000000pt" viewBox="0 0 2560.000000 1707.000000"
 preserveAspectRatio="xMidYMid meet">

<g transform="translate(0.000000,1707.000000) scale(0.100000,-0.100000)"
fill="#000000" stroke="none">
<path d="M0 8535 l0 -8535 12800 0 12800 0 0 8535 0 8535 -12800 0 -12800 0 0
-8535z m13295 3607 c269 -829 527 -1623 573 -1764 l84 -258 1861 0 c1612 0
1859 -2 1847 -14 -8 -8 -683 -499 -1500 -1091 -817 -592 -1486 -1082 -1488
-1089 -1 -6 254 -801 568 -1765 314 -965 569 -1756 567 -1757 -2 -2 -677 484
-1499 1081 -823 597 -1501 1085 -1508 1085 -6 0 -685 -488 -1507 -1085 -823
-597 -1498 -1083 -1500 -1082 -2 2 253 793 567 1758 314 964 569 1759 568
1766 -2 6 -671 496 -1488 1088 -817 592 -1492 1083 -1500 1091 -12 12 242 14
1847 14 l1861 0 84 258 c46 141 304 935 573 1764 270 829 492 1508 495 1508 3
0 225 -679 495 -1508z"/>
</g>
</svg>
